<svg xmlns="http://www.w3.org/2000/svg" viewBox="0 0 700 526"><defs><style>.cls-1{fill:none;}.cls-2,.cls-3{fill:#068539;stroke:#040c01;stroke-miterlimit:10;}.cls-2{stroke-width:3px;}.cls-3{stroke-width:2px;}</style></defs><title>kaliptuslogo</title><g id="katman_2" data-name="katman 2"><g id="katman_1-2" data-name="katman 1"><rect class="cls-1" width="700" height="526"/><path class="cls-2" d="M613.83,233s39.78,41.72,28.12,78.55-50.77,24.76-50.77,24.76Z"/><path class="cls-2" d="M613.83,233s39.78,41.72,28.12,78.55-50.77,24.76-50.77,24.76Z"/><path class="cls-2" d="M608.1,219s24.51,103.76-100.36,126.31c0,0,18.67,20.62,57.18,8.05,0,0,1.17,47.58,32.68,60.37,0,0-21-45.86,0-68.42s26.84-81.2,18.67-117.29-8.17-9-8.17-9"/><path class="cls-2" d="M608.1,219s24.51,103.76-100.36,126.31c0,0,18.67,20.62,57.18,8.05,0,0,1.17,47.58,32.68,60.37,0,0-21-45.86,0-68.42s26.84-81.2,18.67-117.29S608.1,219,608.1,219Z"/><path class="cls-2" d="M620.36,192c-14-31.58-58.35-65.44-58.35-65.44l-4.67,15.82c68.94,92.79,16.34,104.17,16.34,104.17C606.35,257.44,612.19,225,612.19,225c22.17,30.07,50.18,12,50.18,12-19.84,1.5-28-13.53-42-45.11"/><path class="cls-2" d="M620.36,192c-14-31.58-58.35-65.44-58.35-65.44l-4.67,15.82c68.94,92.79,16.34,104.17,16.34,104.17C606.35,257.44,612.19,225,612.19,225c22.17,30.07,50.18,12,50.18,12C642.53,238.57,634.36,223.53,620.36,192Z"/><path class="cls-2" d="M425.47,47.6s114.37-.55,119,16.21c0,0-13.85,43.06-148.13-8.38Z"/><path class="cls-2" d="M425.47,47.6s114.37-.55,119,16.21c0,0-13.85,43.06-148.13-8.38Z"/><path class="cls-2" d="M384.47,51.7S486.15,68.88,522.33,89.82s40.84,34.47,98,27c0,0-4.67,12-40.83,16.7-4.23.55-8.88,1-14,1.32,0,0,14,5-14,15.3,0,0,9.34-25.84-28-23.56,0,0,4.66,38.37-36.18,41.38,0,0,50.18-90.26-138.29-87.23s-16.71,3.45-16.71,3.45Z"/><path class="cls-2" d="M384.47,51.7S486.15,68.88,522.33,89.82s40.84,34.47,98,27c0,0-4.67,12-40.83,16.7-4.23.55-8.88,1-14,1.32,0,0,14,5-14,15.3,0,0,9.34-25.84-28-23.56,0,0,4.66,38.37-36.18,41.38,0,0,50.18-90.26-138.29-87.23s-16.71,3.45-16.71,3.45Z"/><path class="cls-2" d="M327.44,88.2s75.86-67.67,135.37-43.61c0,0,12.84,7.52-19.84,10.53S327.44,88.2,327.44,88.2"/><path class="cls-2" d="M327.44,88.2s75.86-67.67,135.37-43.61c0,0,12.84,7.52-19.84,10.53S327.44,88.2,327.44,88.2Z"/><path class="cls-2" d="M213.19,156.85s6.88-51.36,53.56-46.84,37.34,27,33.84,31.55l-3.5,4.54S285.53,116,258.64,133.28s-45.45,23.56-45.45,23.56"/><path class="cls-2" d="M213.19,156.85s6.88-51.36,53.56-46.84,37.34,27,33.84,31.55l-3.5,4.54S285.53,116,258.64,133.28,213.19,156.85,213.19,156.85Z"/><path class="cls-2" d="M258.48,110s119.14-45.16,98.13,23.28c0,0,68.85-36.81-24.51-53.36,0,0,25.67-7,24.51-53.86,0,0-23,38.4-44.34,43.34C267.92,79.67,258.48,110,258.48,110"/><path class="cls-2" d="M258.48,110s119.14-45.16,98.13,23.28c0,0,68.85-36.81-24.51-53.36,0,0,25.67-7,24.51-53.86,0,0-23,38.4-44.34,43.34C267.92,79.67,258.48,110,258.48,110Z"/><path class="cls-2" d="M211.44,168.12s3.5-60.66,29.05-64.89c42.25-7,67.6-44.77,71.77-62.4,0,0-16.57,16.54-51.13,31.58-85.42,37.16-49.7,95.72-49.7,95.72"/><path class="cls-2" d="M211.44,168.12s3.5-60.66,29.05-64.89c42.25-7,67.6-44.77,71.77-62.4,0,0-16.57,16.54-51.13,31.58C175.72,109.57,211.44,168.12,211.44,168.12Z"/><polygon class="cls-2" points="484.69 226.54 421.09 226.54 421.09 181.43 361.57 181.43 361.57 226.54 297.97 226.54 297.97 285.19 361.57 285.19 361.57 330.3 421.09 330.3 421.09 285.19 484.69 285.19 484.69 226.54"/><polygon class="cls-2" points="484.69 226.54 421.09 226.54 421.09 181.43 361.57 181.43 361.57 226.54 297.97 226.54 297.97 285.19 361.57 285.19 361.57 330.3 421.09 330.3 421.09 285.19 484.69 285.19 484.69 226.54"/><path class="cls-2" d="M394.83,427.29s-131.69-15-118.17-90.23c0,0-29.83,75.19,8.18,90.23,0,0-77.9-3-80,0s-14,24-14,24,3.48,24.13,39.74,16.61,94.52-32.88,122-22.55c18.69,7,42.31-18,42.31-18"/><path class="cls-2" d="M394.83,427.29s-131.69-15-118.17-90.23c0,0-29.83,75.19,8.18,90.23,0,0-77.9-3-80,0s-14,24-14,24,3.48,24.13,39.74,16.61,94.52-32.88,122-22.55C371.22,452.37,394.83,427.29,394.83,427.29Z"/><path class="cls-2" d="M143.44,308.41s-2.72-136.75,109.31-148.78c0,0-26.46-16.54-54.66,0,0,0,10-48.12-17.88-69.17,0,0,9.15,36.09,0,60.15s-54.67,37.59-53.5,121.05,16.73,36.75,16.73,36.75"/><path class="cls-2" d="M143.44,308.41s-2.72-136.75,109.31-148.78c0,0-26.46-16.54-54.66,0,0,0,10-48.12-17.88-69.17,0,0,9.15,36.09,0,60.15s-54.67,37.59-53.5,121.05S143.44,308.41,143.44,308.41Z"/><path class="cls-2" d="M161.73,326.54s-54.85-63.16,0-151.88c0,0-32.55,7.52-12.19-37.59,0,0-31-3-36.83,51.13s17.39,219.7,49,167.45,0-29.1,0-29.1"/><path class="cls-2" d="M161.73,326.54s-54.85-63.16,0-151.88c0,0-32.55,7.52-12.19-37.59,0,0-31-3-36.83,51.13s17.39,219.7,49,167.45S161.73,326.54,161.73,326.54Z"/><path class="cls-2" d="M193.82,332.55s-19.18-45.42,41.43-49.62c43.25-3,43.18,34.59,43.18,34.59s19.55-72.18-54.94-72.18c-55.84,3.42-73.43,63.07-73.43,63.07s-19.72,32.33,9,61.74,42.47,45.86,34.79,0c-4.2-25.08,0-37.59,0-37.59"/><path class="cls-2" d="M193.82,332.55s-19.18-45.42,41.43-49.62c43.25-3,43.18,34.59,43.18,34.59s19.55-72.18-54.94-72.18c-55.84,3.42-73.43,63.07-73.43,63.07s-19.72,32.33,9,61.74,42.47,45.86,34.79,0C189.62,345.06,193.82,332.55,193.82,332.55Z"/><path class="cls-2" d="M204.79,402.88s-20.9-95.9,58.46-82.36c0,0-103.07-54.46-79.54,67.51Z"/><path class="cls-2" d="M204.79,402.88s-20.9-95.9,58.46-82.36c0,0-103.07-54.46-79.54,67.51Z"/><path class="cls-2" d="M241.08,406.24s-84-12-94.53-58.65S112.71,278.3,73,270.84c0,0,32.68,30.14,38.51,42.17s-8.17-27.07-77-19.55c0,0,29.88,17.95,73.52,60.15,93.29,90.22,133,52.63,133,52.63"/><path class="cls-2" d="M241.08,406.24s-84-12-94.53-58.65S112.71,278.3,73,270.84c0,0,32.68,30.14,38.51,42.17s-8.17-27.07-77-19.55c0,0,29.88,17.95,73.52,60.15C201.34,443.83,241.08,406.24,241.08,406.24Z"/><path class="cls-2" d="M403.29,485.93s-170.38-102.25-236.9-12c0,0,18.67-63.16,57.18-60.15,0,0-10.5-33.08,15.17-58.65,0,0-9.34,46.61,56,58.65s108.53,72.18,108.53,72.18"/><path class="cls-2" d="M403.29,485.93s-170.38-102.25-236.9-12c0,0,18.67-63.16,57.18-60.15,0,0-10.5-33.08,15.17-58.65,0,0-9.34,46.61,56,58.65S403.29,485.93,403.29,485.93Z"/><path class="cls-3" d="M481.44,423.14a58.13,58.13,0,0,0-4.48-12.9c-14.43-30.77-48.3-35.72-40.34-7.94,6,21,22.56,27.92,42.08,25.83.37,35.79-88.34,22.74-88.34,22.74h1.69s93.08,20,90-23.18c29.42-4.59,64.45-28.39,80.51-55-19.38,28-53.7,46.28-81.15,50.5m-40.13-19.58c-6.21-21.69,19-16.32,31.5,6.2a47.78,47.78,0,0,1,5.41,13.81c-17.83,1.9-32.26-3.79-36.91-20"/><path class="cls-3" d="M481.44,423.14a58.13,58.13,0,0,0-4.48-12.9c-14.43-30.77-48.3-35.72-40.34-7.94,6,21,22.56,27.92,42.08,25.83.37,35.79-88.34,22.74-88.34,22.74h1.69s93.08,20,90-23.18c29.42-4.59,64.45-28.39,80.51-55C543.21,400.61,508.89,418.92,481.44,423.14Zm-40.13-19.58c-6.21-21.69,19-16.32,31.5,6.2a47.78,47.78,0,0,1,5.41,13.81C460.39,425.47,446,419.77,441.31,403.55Z"/><path class="cls-2" d="M478.68,428.28a24.87,24.87,0,0,0-.72-5.91"/><path class="cls-2" d="M482.08,427.68a21.16,21.16,0,0,0-.64-4.55"/></g></g></svg>